<svg xmlns="http://www.w3.org/2000/svg" viewBox="0 0 48 48">
  <defs>
    <clipPath id="gClip"><circle cx="24" cy="24" r="22"/></clipPath>
  </defs>
  <g clip-path="url(#gClip)">
    <path fill="#4285F4" d="M23.5 12.5v6.3h10.8c-.5 2.9-3 7.1-10.8 9.2-6.6 1.8-12.5-.6-16-4.2l6.2-5c2.1 1.8 5.2 3 9.8 1.8 2.8-.7 4.8-2.5 5.7-4.3H23.5v-4.8z"/>
    <path fill="#34A853" d="M6.1 26.7c1.5 4.4 4.8 8.9 10.6 10.1 6.1 1.3 11.8-.6 15.6-3.9l-6.1-5c-2 1.5-5 2.9-9.5 1.9-3.5-.8-6.1-3.2-8-6.2l-2.6 3.1z"/>
    <path fill="#FBBC05" d="M37.2 36.3c3.1-2.3 5.4-5.8 6.6-10.3H24v0c-3.6 0-6.6 1.3-8.7 3.2l2.7 3.5c1.5-1.4 4-2.5 6.7-2.2 3 .4 5.8 2 7.3 5.1z"/>
    <path fill="#EA4335" d="M10 15.4l6 4.8c2.3-3.1 6.6-6 11.5-5.4 3.3.4 6.1 1.9 7.8 3.3l4.1-4.2C36.8 8 30.9 6 24 6 16.8 6 10.7 9.3 10 15.4z"/>
  </g>
</svg>
